<mxfile host="app.diagrams.net" modified="2023-02-16T18:37:03.459Z" agent="5.0 (Windows NT 10.0; Win64; x64) AppleWebKit/537.36 (KHTML, like Gecko) Chrome/109.0.0.0 Safari/537.36" etag="oEqyG8ECCkBmeDu-UuaQ" version="20.8.20" type="github">
  <diagram name="Page-1" id="t9uQAWmX41yd_XQ180Mt">
    <mxGraphModel dx="1594" dy="878" grid="1" gridSize="10" guides="1" tooltips="1" connect="1" arrows="1" fold="1" page="1" pageScale="1" pageWidth="1600" pageHeight="1200" math="0" shadow="0">
      <root>
        <mxCell id="0" />
        <mxCell id="1" parent="0" />
        <mxCell id="v8Uxb1n0UViecURGtcN1-1" value="" style="rounded=0;whiteSpace=wrap;html=1;" vertex="1" parent="1">
          <mxGeometry x="40" y="530" width="290" height="350" as="geometry" />
        </mxCell>
        <mxCell id="v8Uxb1n0UViecURGtcN1-2" value="" style="shape=cylinder3;whiteSpace=wrap;html=1;boundedLbl=1;backgroundOutline=1;size=15;" vertex="1" parent="1">
          <mxGeometry x="80" y="780" width="60" height="80" as="geometry" />
        </mxCell>
        <mxCell id="v8Uxb1n0UViecURGtcN1-3" value="ENG PORTAL" style="text;html=1;align=center;verticalAlign=middle;resizable=0;points=[];autosize=1;strokeColor=none;fillColor=none;" vertex="1" parent="1">
          <mxGeometry x="100" y="495" width="100" height="30" as="geometry" />
        </mxCell>
        <mxCell id="v8Uxb1n0UViecURGtcN1-4" value="" style="aspect=fixed;html=1;points=[];align=center;image;fontSize=12;image=img/lib/azure2/management_governance/Resource_Graph_Explorer.svg;" vertex="1" parent="1">
          <mxGeometry x="620" y="190" width="188.44" height="180" as="geometry" />
        </mxCell>
        <mxCell id="v8Uxb1n0UViecURGtcN1-5" value="Resources" style="swimlane;fontStyle=0;childLayout=stackLayout;horizontal=1;startSize=30;horizontalStack=0;resizeParent=1;resizeParentMax=0;resizeLast=0;collapsible=1;marginBottom=0;whiteSpace=wrap;html=1;" vertex="1" parent="1">
          <mxGeometry x="660" y="30" width="140" height="120" as="geometry" />
        </mxCell>
        <mxCell id="v8Uxb1n0UViecURGtcN1-6" value="id" style="text;strokeColor=none;fillColor=none;align=left;verticalAlign=middle;spacingLeft=4;spacingRight=4;overflow=hidden;points=[[0,0.5],[1,0.5]];portConstraint=eastwest;rotatable=0;whiteSpace=wrap;html=1;" vertex="1" parent="v8Uxb1n0UViecURGtcN1-5">
          <mxGeometry y="30" width="140" height="30" as="geometry" />
        </mxCell>
        <mxCell id="v8Uxb1n0UViecURGtcN1-7" value="name" style="text;strokeColor=none;fillColor=none;align=left;verticalAlign=middle;spacingLeft=4;spacingRight=4;overflow=hidden;points=[[0,0.5],[1,0.5]];portConstraint=eastwest;rotatable=0;whiteSpace=wrap;html=1;" vertex="1" parent="v8Uxb1n0UViecURGtcN1-5">
          <mxGeometry y="60" width="140" height="30" as="geometry" />
        </mxCell>
        <mxCell id="v8Uxb1n0UViecURGtcN1-8" value="........" style="text;strokeColor=none;fillColor=none;align=left;verticalAlign=middle;spacingLeft=4;spacingRight=4;overflow=hidden;points=[[0,0.5],[1,0.5]];portConstraint=eastwest;rotatable=0;whiteSpace=wrap;html=1;" vertex="1" parent="v8Uxb1n0UViecURGtcN1-5">
          <mxGeometry y="90" width="140" height="30" as="geometry" />
        </mxCell>
        <mxCell id="v8Uxb1n0UViecURGtcN1-9" value="" style="verticalLabelPosition=bottom;html=1;verticalAlign=top;align=center;strokeColor=none;fillColor=#00BEF2;shape=mxgraph.azure.service_endpoint;" vertex="1" parent="1">
          <mxGeometry x="320" y="695" width="50" height="20" as="geometry" />
        </mxCell>
        <mxCell id="v8Uxb1n0UViecURGtcN1-17" style="edgeStyle=orthogonalEdgeStyle;rounded=0;orthogonalLoop=1;jettySize=auto;html=1;" edge="1" parent="1" source="v8Uxb1n0UViecURGtcN1-10">
          <mxGeometry relative="1" as="geometry">
            <mxPoint x="1410" y="728.53" as="targetPoint" />
          </mxGeometry>
        </mxCell>
        <mxCell id="v8Uxb1n0UViecURGtcN1-18" style="edgeStyle=orthogonalEdgeStyle;rounded=0;orthogonalLoop=1;jettySize=auto;html=1;entryX=1;entryY=0.5;entryDx=0;entryDy=0;entryPerimeter=0;" edge="1" parent="1" source="v8Uxb1n0UViecURGtcN1-10" target="v8Uxb1n0UViecURGtcN1-9">
          <mxGeometry relative="1" as="geometry" />
        </mxCell>
        <mxCell id="v8Uxb1n0UViecURGtcN1-10" value="" style="aspect=fixed;html=1;points=[];align=center;image;fontSize=12;image=img/lib/azure2/compute/Function_Apps.svg;" vertex="1" parent="1">
          <mxGeometry x="680" y="680" width="110" height="97.06" as="geometry" />
        </mxCell>
        <mxCell id="v8Uxb1n0UViecURGtcN1-11" value="UpToDateResources" style="swimlane;fontStyle=0;childLayout=stackLayout;horizontal=1;startSize=30;horizontalStack=0;resizeParent=1;resizeParentMax=0;resizeLast=0;collapsible=1;marginBottom=0;whiteSpace=wrap;html=1;" vertex="1" parent="1">
          <mxGeometry x="1420" y="630" width="140" height="120" as="geometry" />
        </mxCell>
        <mxCell id="v8Uxb1n0UViecURGtcN1-12" value="resourceid" style="text;strokeColor=none;fillColor=none;align=left;verticalAlign=middle;spacingLeft=4;spacingRight=4;overflow=hidden;points=[[0,0.5],[1,0.5]];portConstraint=eastwest;rotatable=0;whiteSpace=wrap;html=1;" vertex="1" parent="v8Uxb1n0UViecURGtcN1-11">
          <mxGeometry y="30" width="140" height="30" as="geometry" />
        </mxCell>
        <mxCell id="v8Uxb1n0UViecURGtcN1-13" value="resourceJSON" style="text;strokeColor=none;fillColor=none;align=left;verticalAlign=middle;spacingLeft=4;spacingRight=4;overflow=hidden;points=[[0,0.5],[1,0.5]];portConstraint=eastwest;rotatable=0;whiteSpace=wrap;html=1;" vertex="1" parent="v8Uxb1n0UViecURGtcN1-11">
          <mxGeometry y="60" width="140" height="30" as="geometry" />
        </mxCell>
        <mxCell id="v8Uxb1n0UViecURGtcN1-14" value="isSendToENGPORTAl" style="text;strokeColor=none;fillColor=none;align=left;verticalAlign=middle;spacingLeft=4;spacingRight=4;overflow=hidden;points=[[0,0.5],[1,0.5]];portConstraint=eastwest;rotatable=0;whiteSpace=wrap;html=1;" vertex="1" parent="v8Uxb1n0UViecURGtcN1-11">
          <mxGeometry y="90" width="140" height="30" as="geometry" />
        </mxCell>
        <mxCell id="v8Uxb1n0UViecURGtcN1-15" value="Read only" style="text;html=1;align=center;verticalAlign=middle;resizable=0;points=[];autosize=1;strokeColor=none;fillColor=none;" vertex="1" parent="1">
          <mxGeometry x="674" y="5" width="80" height="30" as="geometry" />
        </mxCell>
        <mxCell id="v8Uxb1n0UViecURGtcN1-16" value="Writable" style="text;html=1;align=center;verticalAlign=middle;resizable=0;points=[];autosize=1;strokeColor=none;fillColor=none;" vertex="1" parent="1">
          <mxGeometry x="1455" y="590" width="70" height="30" as="geometry" />
        </mxCell>
        <mxCell id="v8Uxb1n0UViecURGtcN1-21" value="where&amp;nbsp;isSendToENGPORTAl !== true" style="text;html=1;align=center;verticalAlign=middle;resizable=0;points=[];autosize=1;strokeColor=none;fillColor=none;" vertex="1" parent="1">
          <mxGeometry x="910" y="695" width="220" height="30" as="geometry" />
        </mxCell>
      </root>
    </mxGraphModel>
  </diagram>
</mxfile>
